<?xml version="1.0" standalone="no"?>
<!DOCTYPE svg PUBLIC "-//W3C//DTD SVG 20010904//EN"
 "http://www.w3.org/TR/2001/REC-SVG-20010904/DTD/svg10.dtd">
<svg version="1.0" xmlns="http://www.w3.org/2000/svg"
 width="354.000000pt" height="354.000000pt" viewBox="0 0 354.000000 354.000000"
 preserveAspectRatio="xMidYMid meet">
<metadata>
Created by potrace 1.14, written by Peter Selinger 2001-2017
</metadata>
<g transform="translate(0.000000,354.000000) scale(0.100000,-0.100000)"
fill="#000000" stroke="none">
<path d="M0 1765 l0 -905 1770 0 1770 0 0 905 0 905 -1770 0 -1770 0 0 -905z
m1680 -115 l0 -220 -700 0 -700 0 0 220 0 220 700 0 700 0 0 -220z m980 76 c0
-3 -4 -8 -10 -11 -5 -3 -10 -1 -10 4 0 6 5 11 10 11 6 0 10 -2 10 -4z m-837
-53 l29 -46 30 47 c17 25 33 45 35 42 2 -2 -10 -25 -26 -52 -19 -28 -31 -61
-31 -81 0 -18 -4 -33 -10 -33 -5 0 -10 14 -10 31 0 17 -14 56 -31 85 -37 66
-25 72 14 7z m229 -10 c10 -9 18 -24 18 -35 0 -15 -8 -18 -50 -18 -51 0 -57
-4 -41 -29 6 -9 21 -12 45 -9 40 4 49 -8 12 -18 -24 -6 -65 10 -78 30 -14 20
-8 56 12 76 24 24 57 26 82 3z m154 6 c4 -7 0 -9 -13 -5 -11 4 -28 4 -37 0
-29 -11 -17 -33 24 -44 30 -8 40 -16 40 -31 0 -25 -40 -44 -74 -35 -36 9 -33
24 4 18 16 -2 37 -1 46 2 23 9 1 34 -33 38 -34 4 -51 31 -34 52 15 18 66 21
77 5z m164 -9 c36 -36 26 -50 -35 -50 -53 0 -55 -1 -44 -21 9 -17 18 -20 50
-17 35 3 38 2 23 -9 -40 -29 -94 0 -94 49 0 61 59 89 100 48z m112 8 c17 17
48 15 70 -5 20 -18 27 -113 8 -113 -5 0 -10 22 -10 50 0 57 -23 80 -60 60 -16
-8 -20 -21 -20 -60 0 -28 -4 -50 -10 -50 -6 0 -10 29 -10 68 0 46 3 62 10 52
7 -12 12 -12 22 -2z m165 -85 c-2 -21 -4 -6 -4 32 0 39 2 55 4 38 2 -18 2 -50
0 -70z m124 90 c48 18 64 1 65 -69 l2 -59 -7 53 c-6 46 -20 71 -42 72 -21 0
-44 -34 -50 -76 -6 -47 -6 -46 -7 21 0 39 2 65 4 59 4 -9 13 -9 35 -1z m227
-5 c7 -7 12 -37 11 -67 0 -31 -3 -51 -5 -45 -4 9 -13 9 -34 1 -35 -13 -63 5
-58 37 2 17 11 22 46 24 45 3 51 11 26 37 -12 11 -26 14 -48 10 -23 -5 -27 -4
-16 4 20 14 63 14 78 -1z m-901 -290 c-2 -13 -4 -3 -4 22 0 25 2 35 4 23 2
-13 2 -33 0 -45z m420 0 c-2 -13 -4 -3 -4 22 0 25 2 35 4 23 2 -13 2 -33 0
-45z m104 7 c14 10 11 -1 -6 -15 -13 -11 -15 -7 -13 31 1 37 2 39 5 11 2 -18
9 -30 14 -27z m-374 3 c-3 -7 -5 -2 -5 12 0 14 2 19 5 13 2 -7 2 -19 0 -25z
m-202 12 c3 -6 -1 -7 -9 -4 -18 7 -21 14 -7 14 6 0 13 -4 16 -10z"/>
<path d="M579 1701 c-32 -33 -37 -67 -14 -110 16 -33 33 -41 80 -41 43 0 65 9
65 26 0 10 -12 12 -49 7 -45 -5 -50 -3 -66 20 -18 28 -14 57 11 82 18 17 70
20 79 5 5 -8 12 -7 22 1 13 11 13 14 -3 26 -33 24 -92 16 -125 -16z"/>
<path d="M900 1649 c-19 -45 -36 -86 -38 -90 -7 -18 28 -8 38 11 8 15 21 20
55 20 35 0 45 -4 50 -20 3 -11 15 -20 25 -20 18 0 16 7 -16 78 -20 42 -38 83
-41 90 -3 6 -13 12 -22 12 -11 0 -28 -27 -51 -81z m80 -25 c0 -2 -13 -4 -30
-4 l-30 0 17 35 17 35 13 -31 c7 -17 13 -33 13 -35z"/>
<path d="M1210 1640 c0 -73 3 -90 15 -90 9 0 15 9 15 25 0 35 41 34 69 -1 11
-14 28 -24 37 -22 14 3 14 6 -4 29 -21 25 -21 26 -1 42 25 22 24 62 -1 87 -15
15 -33 20 -75 20 l-55 0 0 -90z m109 42 c15 -28 -5 -52 -44 -52 -33 0 -35 2
-35 35 0 33 2 35 35 35 23 0 38 -6 44 -18z"/>
<path d="M1988 1659 c-35 -20 -21 -39 27 -39 48 0 55 9 29 34 -18 18 -32 20
-56 5z"/>
<path d="M2297 1652 c-25 -28 -21 -32 28 -32 46 0 58 13 33 38 -17 17 -42 15
-61 -6z"/>
<path d="M2924 1599 c-3 -6 1 -18 9 -27 13 -13 21 -13 42 -4 38 17 32 42 -9
42 -19 0 -38 -5 -42 -11z"/>
</g>
</svg>
